<?xml version="1.0" encoding="UTF-8"?>
<svg id="Layer_1" data-name="Layer 1" xmlns="http://www.w3.org/2000/svg" viewBox="0 0 935.77 237.82">
  <defs>
    <style>
      .cls-1 {
        fill: #016df0;
      }

      .cls-2 {
        fill: #006df0;
      }

      .cls-3 {
        fill: #ffffe5;
      }

      .cls-4 {
        fill: #1277f0;
      }

      .cls-5 {
        fill: #016def;
      }
    </style>
  </defs>
  <path class="cls-2" d="M312.23,195.02c-9.28,2.72-18.69,3.07-28.04,2.43-14.58-1.01-27.8-6.11-39.28-15.23-11.69-9.28-19.28-21.42-23.74-35.59-1.81-5.75-3.32-11.58-3.58-17.63-.26-6.1-.72-12.24-.34-18.32.78-12.5,3.39-24.64,9.3-35.83,6.3-11.94,15.25-21.4,27.04-28.14,7.77-4.45,16.06-7.39,24.92-8.29,6.7-.69,13.53-1.22,20.22-.75,14,.97,26.85,5.68,38.09,14.2,13.67,10.36,21.63,24.42,25.97,40.79,2.91,10.99,3.28,22.21,2.68,33.41-.62,11.51-3.61,22.56-8.71,32.97-4.03,8.24-9.47,15.44-16.39,21.41-8.14,7.04-17.6,11.71-28.14,14.56M310.55,176.34c.48-.2.97-.39,1.45-.6,11-4.64,19.12-12.44,24.71-22.87,4.53-8.44,6.67-17.67,7.13-27.11.37-7.57-.05-15.24-.79-22.79-.6-6.02-2.55-11.82-5.01-17.42-3.7-8.45-9.07-15.49-16.61-20.83-6.79-4.81-14.22-8.18-22.58-8.73-5.52-.36-11.13-.48-16.6.14-6.25.7-12.17,2.98-17.61,6.24-7.76,4.65-14.24,10.57-18.46,18.74-4.85,9.39-6.69,19.54-7.31,29.9-.37,6.1.09,12.26.33,18.39.23,5.8,1.68,11.39,3.71,16.8,4.73,12.6,13.02,22.13,25.03,28.28,7.39,3.78,15.32,5.28,23.6,5.18,6.42-.08,12.71-.82,19.02-3.32Z"/>
  <path class="cls-2" d="M856.76,207.14v30.68h-18.7V82.89h17.06v14.12c3.56-4.7,7.21-8.55,11.79-11.39,4.21-2.61,8.74-4.47,13.72-4.85,4.03-.3,8.1-.65,12.11-.36,8.77.63,16.68,3.76,23.59,9.29,10.02,8.01,14.8,18.96,17.66,31.06,1.94,8.22,2.08,16.6,1.45,24.88-.88,11.66-4.05,22.78-11.02,32.47-7.09,9.85-16.65,16.1-28.49,18.58-7.97,1.67-15.99,1.57-23.7-1.55-5.94-2.4-11.01-6.05-15.46-11.2v23.21M908.35,168.89c4.76-6.98,6.62-14.95,7.11-23.14.46-7.7.55-15.46-1.08-23.12-1.92-8.97-5.84-16.7-13.38-22.27-6.89-5.08-14.54-6.19-22.61-3.8-6.73,1.99-11.59,6.66-15.59,12.2-5.05,7.01-7.06,15.18-7.5,23.58-.35,6.63.05,13.35.76,19.96,1.04,9.66,5.01,17.96,12.94,24.06,6.06,4.66,12.99,6.06,20.31,5.03,8.07-1.14,14.05-5.92,19.06-12.51Z"/>
  <path class="cls-2" d="M718.96,112.99c3.07-13.44,10.08-23.37,23.28-28.28,5.69-2.11,11.48-3.66,17.53-3.94,5.7-.26,11.43-.61,17.12-.35,7.23.34,14.27,1.87,20.83,5.17,8.12,4.1,12.73,10.75,14.21,19.6.52,3.1.75,6.28.8,9.43.12,6.86,0,13.73.05,20.6.1,11.79.1,23.59.44,35.37.24,8.41,1.14,16.76,5.88,24.55-2.53,0-4.63,0-6.73,0-4.07,0-8.13.04-12.2-.05-.6-.01-1.55-.56-1.73-1.06-1.37-3.99-2.6-8.04-3.82-11.92-2.64,1.95-5.63,4.38-8.85,6.49-7.29,4.76-15.24,7.77-23.99,8.57-8.93.82-17.8.9-26.3-2.43-10.62-4.16-17.58-11.6-19.5-23.06-2-11.92,1.22-22.26,10.44-30.31,5.06-4.42,11.16-7.15,17.68-8.52,6.2-1.3,12.54-1.97,18.82-2.89,10.28-1.5,20.6-2.82,30.62-6.16-.06-5.58.59-11.16-1.88-16.52-1.84-3.99-4.93-6.39-8.71-8.14-5.25-2.44-10.84-2.93-16.55-2.88-4.3.04-8.56.27-12.72,1.43-7.28,2.03-11.56,7.15-14.12,13.97-.66,1.76-1.22,3.56-1.94,5.67-6.12-.76-12.36-1.53-18.76-2.32,0-.59,0-1.22.08-2M768.28,145.17c-.31.12-.6.29-.92.35-4.9.82-9.82,1.49-14.69,2.46-3.85.77-7.63,1.97-10.7,4.57-4.07,3.46-5.82,7.86-5.68,13.27.12,4.55,1.99,8.16,5.03,11.17,3.43,3.39,7.9,4.93,12.61,5.28,8.3.63,16.43-.16,23.86-4.42,6.69-3.84,11.78-9.12,14.08-16.6,2.19-7.12,1.76-14.51,1.66-21.98-.59.18-1.13.33-1.67.51-7.57,2.55-15.32,4.28-23.58,5.38Z"/>
  <path class="cls-2" d="M543.61,197.54c-11.88-.82-22.48-4.3-31.38-12.3-8.92-8.02-13.67-18.13-15.91-29.73-1.49-7.7-1.48-15.46-1.05-23.16.65-11.53,3.63-22.52,10.57-32.03,7.14-9.79,16.67-16.05,28.52-18.8,6.21-1.45,12.51-1.52,18.75-1.09,9.9.68,18.88,4.22,26.53,10.64,8.03,6.75,13.24,15.32,16.11,25.42,2.54,8.94,2.91,18.04,2.52,27.43h-83.09c-.13,5.84,1.14,11.22,3.04,16.46,1.73,4.75,4.39,8.99,8.08,12.48,4.68,4.42,10.07,7.46,16.57,8.31,6.49.84,12.84.73,18.94-2.06,5.59-2.56,9.76-6.6,12.7-11.92,1.2-2.17,2.3-4.42,3.18-6.73.66-1.73,1.96-1.4,3.11-1.27,5.67.67,11.33,1.44,17.49,2.24-1.64,4.06-2.95,8.16-4.91,11.93-3.61,6.95-8.7,12.68-15.45,16.82-5.52,3.39-11.43,5.89-17.91,6.52-5.39.52-10.82.58-16.42.85M574.74,112.61c-7.84-15.34-24.15-19.49-38.55-14.51-14.16,4.9-21.18,19.74-20.35,30.11h62.61c-.4-5.4-1.38-10.5-3.71-15.6Z"/>
  <path class="cls-1" d="M37.72,108.65c1.12.86,2.27,1.68,3.34,2.6,1.7,1.47,3.35,3,5.3,4.77v-2.38c0-21.6.02-43.19-.02-64.79,0-3.12,1.44-5.71,2.41-8.53,1.15-3.37,3.69-5.42,5.99-7.39,2.04-1.75,5.28-2.37,8.09-2.92,4.45-.86,8.71.51,12.57,2.58,2.03,1.09,4.19,2.81,5.16,4.79,1.66,3.44,3.84,6.81,3.83,10.93-.05,11.93-.02,23.86-.02,35.79v2.21c3.44-2.36,7.19-3.44,11.02-3.45,2.5,0,5,1.17,7.52,1.75,3.95.91,6.08,4.03,8.41,6.89.7.86,1.18,1.89,1.77,2.84.98-.61,1.89-1.45,2.95-1.78,2.36-.74,4.77-1.55,7.2-1.72,2.81-.21,5.73-.09,8.47.5,1.95.42,3.73,1.77,5.48,2.87,1.33.84,2.57,1.88,3.71,2.98.5.48.67,1.32.93,2.02,1,2.72,2,5.45,2.92,8.2.17.5-.03,1.12-.07,1.88,1.07-.63,2.06-1.17,3.01-1.78,4.36-2.74,8.91-3.12,13.71-1.27,1.43.55,3.02.66,4.47,1.16.49.17.68,1.03,1.16,1.38,4.23,3.15,6.4,7.58,7.79,12.49.21.74.35,1.53.35,2.29.02,16.33.09,32.66-.05,48.99-.03,3.16-.72,6.35-1.44,9.44-.84,3.61-1.76,7.26-3.15,10.68-1.49,3.69-3.32,7.29-5.45,10.65-2.09,3.28-4.56,6.38-7.22,9.23-2.8,3-5.96,5.69-9.1,8.35-1.99,1.68-4.1,3.34-6.4,4.52-7.03,3.59-14.11,7.12-22.28,7.35-3.75.11-7.48.71-11.22.72-5.92.01-11.68-.91-17.47-2.43-4.74-1.24-8.93-3.38-13.26-5.43-6.07-2.88-11.08-7.13-15.91-11.66-1.85-1.74-3.9-3.34-5.47-5.31-2.6-3.27-4.87-6.82-7.33-10.2-.57-.79-1.36-1.41-1.96-2.33.03-.32-.03-.43-.09-.53-.07.1-.15.2-.22.31-1.49-3.01-2.87-6.09-4.52-9.01-1.63-2.9-3.53-5.65-5.29-8.48-3.05-4.93-6.06-9.88-9.13-14.79-.85-1.36-1.84-2.62-2.75-3.95-2.59-3.8-5.18-7.61-7.75-11.43-2.13-3.18-4.32-6.32-6.31-9.58-2.44-3.99-5.2-7.9-6.89-12.21C2.61,121.64-.26,116.97.02,111.5c.09-1.71.57-3.51,1.32-5.04,3.35-6.89,10.58-9.53,16.43-8.22,4.36.98,8.19,2.79,11.88,5.16,2.54,1.63,5.19,3.1,7.74,4.81.08.26.21.36.33.45M52.9,132.67c-4.56-4.3-9.07-8.66-13.72-12.87-2.88-2.61-5.85-5.16-8.99-7.45-4.1-2.98-8.64-5.23-13.53-6.66-3.13-.91-8.79,1.25-8.76,6.16.02,4.37,1.62,8.11,3.66,11.77,1.94,3.48,3.81,7.01,5.91,10.4,3.29,5.3,6.74,10.5,10.12,15.74,1.6,2.49,3.23,4.96,4.79,7.48,3.42,5.54,6.7,11.18,10.23,16.65,2.96,4.58,6.02,9.09,8.64,13.88,1.01,1.85,2.37,3.52,3.63,5.22,3.26,4.38,6.6,8.71,9.83,13.12,1.66,2.27,4.66,3.14,5.88,5.82.07.16.28.28.45.37,3.9,2.03,6.68,5.77,11.17,7.01,2.5.69,4.74,2.29,7.16,3.31,2.24.95,4.52,2.03,6.88,2.42,3.63.59,7.34.85,11.02.83,4.68-.03,9.36-.36,14.02-.79,2.02-.19,4.07-.73,5.94-1.51,3.19-1.33,6.15-3.25,9.39-4.39,1.58-.56,2.99-1.42,4.26-2.24,3.12-2.01,6.14-4.33,8.73-6.99,3.66-3.76,7-7.78,9.62-12.49,2.42-4.36,4.85-8.59,5.75-13.55.67-3.7,2.02-7.38,2.08-11.09.23-16.46.15-32.92.03-49.38-.01-1.77-.71-3.7-1.6-5.27-1.31-2.3-3.7-3.49-6.08-4.53-3.33-1.45-9.98-.15-12.22,4.5-.06.12-.05.29-.14.36-1.7,1.42-1.73,1.41-1.89,3.05-.17,1.77-.18,3.55-.46,5.3-.09.55-.82,1.36-1.33,1.41-1.71.18-3.46.14-5.19.01-.39-.03-.72-.74-1.02-1.51,0-5.3.02-10.6,0-15.89,0-.62-.22-1.24-.39-2.18-.02-5.22-3.28-9.02-8.43-10.43-7.8-2.13-13.84,4.93-13.96,11-.07,3.77-.01,7.55-.01,11.46-2.02,0-3.81-.09-5.59.03-1.61.11-2.07-.49-2.05-2.06.08-5.6.1-11.2,0-16.79-.03-1.67-.09-3.64-.96-4.93-1.46-2.17-3.28-4.44-5.49-5.66-1.76-.97-4.34-.42-6.56-.59-2.29-.18-3.81,1.28-5.36,2.54-2.54,2.06-3.84,4.99-3.92,8.12-.2,8.26-.07,16.52-.07,24.79v2.16c-1.97,0-3.63,0-5.3,0q-2.7,0-2.7-2.74c0-25.65,0-51.31,0-76.96,0-5.77-4.09-10.48-9.66-11.08-2.85-.31-5.41.75-7.8,2.1-3.49,1.97-4.22,5.47-4.9,9.18-.14.81-.41,1.63-.41,2.44-.02,26.2-.01,52.4-.04,78.59,0,.97-.26,1.95-.65,2.81Z"/>
  <path class="cls-2" d="M385.56,163.94v-81.08h16.72v15.22c.74-.86,1.26-1.38,1.69-1.96,6.35-8.55,14.91-13.73,25.31-15.25,10.28-1.51,20.42-.77,30.01,4.09,7.78,3.94,12.54,10.11,15.08,18.26,1.46,4.69,2,9.5,2,14.39,0,25.06,0,50.13,0,75.19v2.24h-19.6v-2.28c0-18.4.03-36.79-.02-55.19-.02-6.11-.03-12.24-.46-18.33-.31-4.41-.95-8.83-3.43-12.76-3.12-4.93-7.66-7.85-13.18-8.87-8.59-1.59-16.68-.17-24.01,5.04-5.58,3.97-8.31,9.55-9.62,15.9-.81,3.97-1.19,8.08-1.23,12.14-.24,20.97-.32,41.95-.45,62.92,0,.4,0,.8,0,1.35h-18.8v-31.04Z"/>
  <path class="cls-2" d="M694.76,40.34h35.48v18.34h-50.58v136.33h-20.47V58.81h-50.68v-18.47h86.24Z"/>
  <path class="cls-1" d="M34.03,87.4c-1.83-2.21-3.54-4.35-5.34-6.4-.46-.53-1.21-.81-2.01-1.32-.13-.3-.34-.9-.64-1.45-2.4-4.32-5.15-8.48-7.09-13-1.23-2.86-1.34-6.22-1.76-9.38-.41-3.06-.96-6.18-.74-9.21.33-4.42.44-8.95,2.31-13.13,1.02-2.28,2.16-4.52,3.02-6.87,1.7-4.62,4.8-8.36,8.07-11.78,2.54-2.65,5.09-5.48,8.72-7.08,1.55-.68,3.04-1.85,4.6-2.76,3.84-2.26,7.92-3.68,12.26-4.23C59.61.27,63.84-.04,68.05,0c4.97.05,9.9.88,14.54,2.72,5.43,2.15,10.59,4.98,14.9,8.89,3.92,3.56,7.77,7.35,10.12,12.28.2.41.8.62.96.74.32.99.45,1.85.84,2.55,1.97,3.51,3.33,7.16,3.7,11.24.37,4.04,1.71,7.99,1.24,12.11-.35,3.05-.94,6.07-1.21,9.12-.39,4.29-1.9,8.09-4.25,11.66-.97,1.48-1.65,3.15-2.42,4.76-.55,1.14-1.16,1.72-2.62,1.26-1.94-.6-3.98-.86-6.46-1.36.67-.93,1.29-1.63,1.74-2.42,1.25-2.19,2.51-4.38,3.59-6.66.55-1.15.32-2.89,1.12-3.66,2.38-2.29,2.19-5.3,2.43-8.02.36-4.17.36-8.43-.05-12.59-.42-4.27-2.53-8.04-4.31-11.95-2.8-6.15-7.32-10.44-12.32-14.63-4.12-3.45-9.21-4.57-13.84-6.77-1.39-.66-3.09-.72-4.67-.91-1.83-.22-3.67-.41-5.51-.39-2.64.02-5.36-.13-7.89.47-3.04.71-5.94,2.05-8.85,3.25-1.82.75-3.63,1.6-5.28,2.66-5.51,3.55-10.19,8.04-13.64,13.58-1.79,2.87-2.83,6.23-4.01,9.44-1.49,4.04-2.67,8.24-2.28,12.57.33,3.6,1.11,7.19,1.95,10.72.57,2.38,1.35,4.78,2.48,6.94,2.43,4.6,5.4,8.85,9.33,12.34,1.02.91,1.48,1.87,1.4,3.27-.13,2.18-.03,4.38-.03,6.69-1.64-.85-3.14-1.63-4.73-2.51Z"/>
  <path class="cls-5" d="M49.93,27.57c-1.98,1.78-4.12,3.42-5.87,5.4-1.03,1.15-1.4,2.87-2.14,4.3-2.68,5.24-3.42,10.83-3.19,16.65.14,3.59,0,7.2.04,10.79,0,1.37.12,2.73.2,4.59-.53-.33-1.14-.51-1.4-.92-1.22-1.91-2.62-3.77-3.43-5.85-1.11-2.88-1.9-5.92-2.53-8.96-.34-1.66.04-3.46-.08-5.18-.4-5.84,1.14-11.09,4.36-15.95,1.35-2.05,2.11-4.52,3.59-6.45,1.21-1.59,3-2.79,4.69-3.95,2.86-1.96,5.77-3.91,9.14-4.93,2.88-.87,5.77-2.07,8.71-2.25,3.77-.23,7.67.06,11.38.79,2.81.55,5.42,2.14,8.11,3.27,4.41,1.85,7.45,5.43,10.71,8.68,1.13,1.12,1.74,2.77,2.56,4.2,3.59,6.22,5.45,12.89,4.72,20.09-.41,4-1.33,7.91-3.56,11.4-1.22,1.92-2.21,3.97-3.3,5.97-.19-.05-.38-.1-.57-.15-.04-.54-.13-1.08-.13-1.62,0-5.6-.01-11.19,0-16.79,0-3.31-.14-6.51-1.91-9.55-1.05-1.8-1.35-4.03-2.12-6.02-.29-.75-.85-1.46-1.44-2.04-1.73-1.7-3.6-3.26-5.28-5.01-2.82-2.93-6.55-3.93-10.26-4.89-2.19-.56-4.58-1.08-6.76-.75-3.4.51-6.72,1.64-10.01,2.71-1.37.45-2.57,1.43-4.05,2.09-.31-.03-.42.03-.52.09.1.07.2.15.31.22Z"/>
  <path class="cls-4" d="M54.15,48.78c.17,1.15.21,2.35.21,3.54,0,26.47,0,52.95-.05,79.42,0,.44,1.04,2.45-1.15,1.2.12-1.14.38-2.11.38-3.08.02-26.2.01-52.4.04-78.59,0-.81.27-1.63.57-2.48Z"/>
  <path class="cls-3" d="M137.14,126.96c-.14-.42-.35-1.02-.36-1.63-.02-5.31-.01-10.61.02-16.11.15.42.36,1.04.36,1.66.02,5.3,0,10.6-.02,16.08Z"/>
  <path d="M37.69,108.56c-.09,0-.22-.09-.25-.22.1-.03.21.13.25.22Z"/>
  <path d="M47.21,195.97c0-.16.07-.26.14-.37.06.11.12.21.15.41-.03.09-.22.02-.29-.04Z"/>
  <path d="M49.99,27.49c-.16,0-.26-.07-.37-.14.11-.06.21-.12.41-.15.09.03.02.22-.04.29Z"/>
</svg>