<?xml version="1.0" standalone="no"?>
<!DOCTYPE svg PUBLIC "-//W3C//DTD SVG 20010904//EN"
 "http://www.w3.org/TR/2001/REC-SVG-20010904/DTD/svg10.dtd">
<svg version="1.0" xmlns="http://www.w3.org/2000/svg"
 width="60.000000pt" height="60.000000pt" viewBox="0 0 60.000000 60.000000"
 preserveAspectRatio="xMidYMid meet">

<g transform="translate(0.000000,60.000000) scale(0.100000,-0.100000)"
fill="#000000" stroke="none">
<path d="M195 485 c-17 -16 -25 -34 -24 -57 1 -19 3 -25 6 -13 2 11 6 30 9 42
2 12 17 29 32 37 15 9 21 15 14 16 -7 0 -24 -11 -37 -25z"/>
<path d="M311 481 c16 -16 29 -40 29 -52 0 -12 3 -20 6 -16 17 17 -29 97 -55
97 -5 0 4 -13 20 -29z"/>
<path d="M222 474 c-14 -10 -22 -25 -21 -42 1 -27 1 -27 8 3 8 40 52 57 80 31
11 -10 22 -28 24 -40 4 -21 4 -20 6 2 1 26 -31 62 -57 62 -10 0 -28 -7 -40
-16z"/>
<path d="M237 453 c-4 -3 -7 -11 -7 -17 0 -6 4 -5 9 3 5 8 16 11 25 8 13 -5
16 -23 17 -89 1 -56 4 -72 8 -48 7 43 42 50 51 10 l6 -25 6 24 c8 28 28 24 45
-10 9 -17 13 -19 13 -7 0 24 -29 50 -50 43 -10 -3 -21 -1 -25 5 -3 5 -15 10
-26 10 -16 0 -19 7 -19 44 0 31 -5 46 -16 50 -20 8 -29 8 -37 -1z"/>
<path d="M186 377 c3 -10 9 -15 12 -12 3 3 0 11 -7 18 -10 9 -11 8 -5 -6z"/>
<path d="M143 315 c-3 -9 -3 -19 1 -22 3 -4 6 1 6 10 0 23 33 21 55 -3 10 -11
20 -18 23 -15 8 8 -42 44 -61 45 -10 0 -20 -7 -24 -15z"/>
<path d="M433 309 c13 -8 17 -25 19 -77 l2 -67 3 63 c4 63 -6 92 -31 92 -6 0
-3 -5 7 -11z"/>
<path d="M165 254 c10 -17 26 -41 37 -55 l20 -24 -17 31 c-10 17 -26 41 -37
55 l-20 24 17 -31z"/>
<path d="M229 153 c13 -25 58 -63 75 -63 6 0 2 5 -9 11 -11 6 -33 25 -49 42
-19 21 -24 25 -17 10z"/>
<path d="M437 145 c-4 -8 -21 -24 -39 -35 -18 -11 -27 -20 -21 -20 17 0 80 57
72 65 -4 3 -9 -1 -12 -10z"/>
<path d="M338 83 c7 -3 16 -2 19 1 4 3 -2 6 -13 5 -11 0 -14 -3 -6 -6z"/>
</g>
</svg>
